<svg xmlns="http://www.w3.org/2000/svg" width="1280" height="640" viewBox="0 0 1280 640" role="img" aria-labelledby="title desc">
<title id="title">Absher Insight by Abdulelah</title><desc id="desc">Synthetic signals. Visible decisions.</desc>
<style>text{font-family:Arial,Helvetica,sans-serif;fill:#f2f1e8}</style>
<rect width="1280" height="640" rx="10" fill="#101310"/>
<text x="56" y="65" font-size="24" font-weight="400" style="fill:#b3bbaa">ABDULELAH / SELECTED WORK</text><text x="56" y="170" font-size="28" font-weight="400" style="fill:#99cbd3">SECURITY / PROTOTYPE</text><text x="56" y="300" font-size="86" font-weight="700">Absher Insight</text><text x="56" y="382" font-size="42" font-weight="400">Synthetic signals.</text><text x="56" y="438" font-size="42" font-weight="400">Visible decisions.</text><path d="M56 541H1224" stroke="#3e4938" stroke-width="2" /><text x="56" y="587" font-size="25" font-weight="400" style="fill:#b3bbaa">Arabic-first AI. Product-minded engineering.</text><g transform="translate(922 177) scale(2.5)" stroke="#99cbd3" stroke-width="2.4" fill="none"><rect x="0" y="0" width="17" height="17" opacity="0.3"/><rect x="0" y="28" width="17" height="17" opacity="0.5"/><rect x="0" y="56" width="17" height="17" opacity="0.7"/><rect x="0" y="84" width="17" height="17" opacity="0.9000000000000001"/><rect x="28" y="0" width="17" height="17" opacity="0.9000000000000001"/><rect x="28" y="28" width="17" height="17" opacity="0.3"/><rect x="28" y="56" width="17" height="17" opacity="0.5"/><rect x="28" y="84" width="17" height="17" opacity="0.7"/><rect x="56" y="0" width="17" height="17" opacity="0.7"/><rect x="56" y="28" width="17" height="17" opacity="0.9000000000000001"/><rect x="56" y="56" width="17" height="17" opacity="0.3"/><rect x="56" y="84" width="17" height="17" opacity="0.5"/><rect x="84" y="0" width="17" height="17" opacity="0.5"/><rect x="84" y="28" width="17" height="17" opacity="0.7"/><rect x="84" y="56" width="17" height="17" opacity="0.9000000000000001"/><rect x="84" y="84" width="17" height="17" opacity="0.3"/><path d="M0 94L25 66 53 79 82 22 110 38"/></g>
</svg>